<svg xmlns="http://www.w3.org/2000/svg" viewBox="0 0 256 256" width="256" height="256">
  <defs>
    <clipPath id="avatar-clip">
      <circle cx="128" cy="128" r="128" />
    </clipPath>
    <linearGradient id="bg-grad-linear" x1="0%" y1="0%" x2="100%" y2="100%"><stop offset="0%" stop-color="#D0F4DE" /><stop offset="100%" stop-color="#A9DFBF" /></linearGradient>
    <radialGradient id="bg-grad-radial" cx="50%" cy="40%" r="60%"><stop offset="0%" stop-color="#A9DFBF" /><stop offset="100%" stop-color="#D0F4DE" /></radialGradient>
    <linearGradient id="chassis-grad" x1="0%" y1="0%" x2="0%" y2="100%"><stop offset="0%" stop-color="#00BBF9" /><stop offset="100%" stop-color="#0096C7" /></linearGradient>
    <linearGradient id="metal-shine" x1="0%" y1="0%" x2="100%" y2="100%"><stop offset="0%" stop-color="#FFFFFF" stop-opacity="0.35" /><stop offset="50%" stop-color="#FFFFFF" stop-opacity="0.0" /><stop offset="100%" stop-color="#000000" stop-opacity="0.15" /></linearGradient>
  </defs>
  <rect x="0" y="0" width="256" height="256" fill="#D0F4DE" />
  <g clip-path="url(#avatar-clip)">
  <!-- Neck -->
  <rect x="108" y="165" width="40" height="30" rx="4" fill="#0096C7" stroke="#0A1D33" stroke-width="3.5" />
  <line x1="108" y1="173" x2="148" y2="173" stroke="#FEE440" stroke-width="3" />
  <line x1="108" y1="183" x2="148" y2="183" stroke="#FEE440" stroke-width="3" />
  <!-- Torso -->
  <path d="M 52 256 L 66 198 Q 72 188 84 188 L 172 188 Q 184 188 190 198 L 204 256 Z" fill="url(#chassis-grad)" stroke="#0A1D33" stroke-width="5" />
  <path d="M 84 188 L 172 188 L 166 198 L 90 198 Z" fill="#0096C7" opacity="0.7" />
  <!-- Chest Badge -->
  <path d="M 116 214 L 140 214 L 140 224 Q 140 234 128 238 Q 116 234 116 224 Z" fill="#FEE440" stroke="#0A1D33" stroke-width="2.5" />  <circle cx="128" cy="224" r="3.5" fill="#FFFFFF" />
  <!-- Ears / Side Attachments -->
  <rect x="36" y="100" width="14" height="30" rx="3" fill="#0096C7" stroke="#0A1D33" stroke-width="3" />  <line x1="40" y1="107" x2="46" y2="107" stroke="#0A1D33" stroke-width="2.5" />  <line x1="40" y1="115" x2="46" y2="115" stroke="#0A1D33" stroke-width="2.5" />  <line x1="40" y1="123" x2="46" y2="123" stroke="#0A1D33" stroke-width="2.5" />  <rect x="206" y="100" width="14" height="30" rx="3" fill="#0096C7" stroke="#0A1D33" stroke-width="3" />  <line x1="210" y1="107" x2="216" y2="107" stroke="#0A1D33" stroke-width="2.5" />  <line x1="210" y1="115" x2="216" y2="115" stroke="#0A1D33" stroke-width="2.5" />  <line x1="210" y1="123" x2="216" y2="123" stroke="#0A1D33" stroke-width="2.5" />
  <!-- Head Base -->
  <rect x="46" y="52" width="164" height="126" rx="32" ry="32" fill="url(#chassis-grad)" stroke="#0A1D33" stroke-width="5" />
  <circle cx="128" cy="66" r="9" fill="#0A1D33" />  <circle cx="128" cy="66" r="6" fill="#FEE440" />  <circle cx="126" cy="64" r="1.5" fill="#FFFFFF" />
  <!-- Faceplate Screen -->
  <rect x="66" y="74" width="124" height="88" rx="18" ry="18" fill="#FFFFFF" stroke="#FEE440" stroke-width="5" />
  <!-- Eyes / Eyewear -->
  <circle cx="98" cy="106" r="17" fill="#0A1D33" />  <circle cx="98" cy="106" r="14" fill="#00F5D4" />  <circle cx="98" cy="106" r="9" fill="#0A1D33" />  <circle cx="95" cy="102" r="4.5" fill="#FFFFFF" />  <circle cx="102" cy="110" r="2" fill="#FFFFFF" />
  <circle cx="158" cy="106" r="17" fill="#0A1D33" />  <circle cx="158" cy="106" r="14" fill="#00F5D4" />  <circle cx="158" cy="106" r="9" fill="#0A1D33" />  <circle cx="155" cy="102" r="4.5" fill="#FFFFFF" />  <circle cx="162" cy="110" r="2" fill="#FFFFFF" />
  <!-- Cheeks -->
  <ellipse cx="80" cy="134" rx="10" ry="7" fill="#FF99C8" opacity="0.9" />  <ellipse cx="176" cy="134" rx="10" ry="7" fill="#FF99C8" opacity="0.9" />
  <!-- Mouth / Expression -->
  <circle cx="128" cy="141" r="8" fill="#0A1D33" />  <circle cx="128" cy="141" r="5.5" fill="#0096C7" />  <circle cx="128" cy="141" r="3" fill="#FFFFFF" />
  <!-- Hat -->
  <polygon points="86,60 80,32 106,46 128,24 150,46 176,32 170,60" fill="#FFD166" stroke="#0A1D33" stroke-width="3.5" stroke-linejoin="round" />  <circle cx="80" cy="32" r="4.5" fill="#FEE440" stroke="#0A1D33" stroke-width="2" />  <circle cx="128" cy="24" r="5.5" fill="#FEE440" stroke="#0A1D33" stroke-width="2" />  <circle cx="176" cy="32" r="4.5" fill="#FEE440" stroke="#0A1D33" stroke-width="2" />  <circle cx="128" cy="48" r="4.5" fill="#00F5D4" stroke="#0A1D33" stroke-width="1.5" />
  </g>
</svg>
